<svg width="25" height="20" viewBox="0 0 25 20" fill="none" xmlns="http://www.w3.org/2000/svg">
<path d="M22.5 0H2.5C1.125 0 0.0125 1.12324 0.0125 2.49609L0 17.4727C0 18.8455 1.125 19.9687 2.5 19.9687H22.5C23.875 19.9687 25 18.8455 25 17.4727V2.49609C25 1.12324 23.875 0 22.5 0ZM22 5.3042L13.1625 10.8206C12.7625 11.0702 12.2375 11.0702 11.8375 10.8206L3 5.3042C2.87466 5.23395 2.7649 5.13903 2.67736 5.0252C2.58982 4.91137 2.52633 4.78099 2.49072 4.64195C2.45511 4.50291 2.44813 4.3581 2.4702 4.21628C2.49226 4.07447 2.54292 3.9386 2.6191 3.8169C2.69528 3.6952 2.79541 3.5902 2.91341 3.50825C3.03141 3.42631 3.16484 3.36912 3.30562 3.34015C3.4464 3.31118 3.5916 3.31103 3.73244 3.33971C3.87328 3.36839 4.00683 3.42531 4.125 3.50701L12.5 8.73633L20.875 3.50701C20.9932 3.42531 21.1267 3.36839 21.2676 3.33971C21.4084 3.31103 21.5536 3.31118 21.6944 3.34015C21.8352 3.36912 21.9686 3.42631 22.0866 3.50825C22.2046 3.5902 22.3047 3.6952 22.3809 3.8169C22.4571 3.9386 22.5077 4.07447 22.5298 4.21628C22.5519 4.3581 22.5449 4.50291 22.5093 4.64195C22.4737 4.78099 22.4102 4.91137 22.3226 5.0252C22.2351 5.13903 22.1253 5.23395 22 5.3042Z" fill="#47A8EA"/>
</svg>
