<svg width="20" height="20" viewBox="0 0 20 20" fill="none" xmlns="http://www.w3.org/2000/svg">
<path d="M19.0677 3.15521L16.4828 0.576759C16.3004 0.393901 16.0837 0.248816 15.845 0.149837C15.6064 0.0508589 15.3504 -6.18431e-05 15.092 5.63661e-08C14.5653 5.63661e-08 14.0702 0.205985 13.6988 0.576759L10.9173 3.35392C10.7342 3.53598 10.5889 3.75237 10.4897 3.99067C10.3906 4.22897 10.3396 4.48447 10.3397 4.74251C10.3397 5.26838 10.546 5.76274 10.9173 6.13351L12.9513 8.16428C12.4752 9.21205 11.8132 10.1652 10.9974 10.9778C10.1836 11.7943 9.22906 12.4576 8.17949 12.9359L6.14554 10.9051C5.9632 10.7222 5.74647 10.5772 5.5078 10.4782C5.26913 10.3792 5.01322 10.3283 4.75478 10.3283C4.22809 10.3283 3.73296 10.5343 3.3616 10.9051L0.577663 13.6798C0.394294 13.8622 0.248856 14.079 0.149719 14.3178C0.0505807 14.5565 -0.00030077 14.8124 1.33745e-06 15.0708C1.33745e-06 15.5967 0.206309 16.0911 0.577663 16.4619L3.15772 19.0379C3.74995 19.6316 4.56789 19.9684 5.40769 19.9684C5.58487 19.9684 5.75477 19.9539 5.92224 19.9248C9.19404 19.3868 12.4391 17.6493 15.058 15.0369C17.6745 12.427 19.4123 9.18936 19.9584 5.91299C20.1235 4.91214 19.791 3.88222 19.0677 3.15521V3.15521Z" fill="#47A8EA"/>
</svg>
