<svg width="18" height="20" viewBox="0 0 18 20" fill="none" xmlns="http://www.w3.org/2000/svg">
<path d="M16.4667 15.8133C14.73 15.7937 13.0462 15.2127 11.667 14.1571C10.2877 13.1015 9.28705 11.6279 8.81446 9.95661C8.34187 8.28529 8.42273 6.50593 9.04497 4.88438C9.6672 3.26282 10.7974 1.88612 12.2667 0.959959C11.5243 0.766963 10.7605 0.668407 9.99337 0.666626C7.51801 0.666626 5.14404 1.64996 3.3937 3.4003C1.64336 5.15064 0.660034 7.52461 0.660034 9.99996C0.660034 12.4753 1.64336 14.8493 3.3937 16.5996C5.14404 18.35 7.51801 19.3333 9.99337 19.3333C11.3957 19.332 12.7792 19.0107 14.0384 18.3937C15.2977 17.7768 16.3996 16.8806 17.26 15.7733C16.9964 15.8001 16.7317 15.8134 16.4667 15.8133V15.8133Z" fill="white"/>
</svg>
